<svg viewBox="0 0 200 200" xmlns="http://www.w3.org/2000/svg">
  <path fill="#d2dee1" d="M23.5,-39.4C33.3,-35.2,45.9,-34.5,57.7,-28.5C69.4,-22.5,80.3,-11.3,72.9,-4.3C65.5,2.7,39.7,5.3,26.6,9.1C13.5,12.8,13.2,17.5,10.9,26.2C8.6,34.8,4.3,47.3,-0.1,47.4C-4.5,47.6,-9,35.5,-12.8,27.8C-16.7,20,-19.9,16.7,-24.7,12.8C-29.5,8.9,-35.8,4.5,-37.5,-1C-39.2,-6.4,-36.3,-12.8,-31.6,-16.9C-26.9,-20.9,-20.5,-22.6,-14.9,-29.3C-9.3,-36.1,-4.7,-47.8,1.1,-49.7C6.9,-51.7,13.8,-43.7,23.5,-39.4Z" transform="translate(100 100)" />
</svg>