<svg viewBox="0 0 200 200" xmlns="http://www.w3.org/2000/svg">
  <path fill="#d2dee1" d="M34.8,-60.5C46,-53.9,56.5,-46.3,51.8,-36C47.2,-25.8,27.4,-12.9,16.6,-6.2C5.8,0.4,4.1,0.9,3.1,1.4C2.2,2,2,2.6,1.6,14.7C1.2,26.8,0.6,50.4,-2.5,54.7C-5.6,59,-11.2,44.1,-24,39.1C-36.7,34.1,-56.5,39.1,-68.8,34.2C-81.1,29.4,-85.8,14.7,-76.8,5.2C-67.9,-4.3,-45.2,-8.7,-34.5,-16.3C-23.8,-23.9,-25,-34.7,-21.3,-45.6C-17.5,-56.5,-8.8,-67.5,1.5,-70.1C11.8,-72.8,23.7,-67.2,34.8,-60.5Z" transform="translate(100 100)" />
</svg>